<?xml version="1.0" encoding="UTF-8"?>
<svg width="96" height="96" version="1.1" viewBox="0 0 25.4 25.4" xmlns="http://www.w3.org/2000/svg"><g stroke-width="4.2333"><path class="UnoptimicedTransforms" d="m6.35 2.1167v2.1167h14.817v12.7h2.1167v-12.7-2.1167h-16.933zm14.817 14.817h-2.1167v2.1167h2.1167v-2.1167zm-2.1167 2.1167h-2.1167v2.1167h2.1167v-2.1167zm-2.1167 2.1167h-12.7v-14.817h-2.1167v16.933h2.1167 12.7v-2.1167zm-12.7-14.817h2.1167v-2.1167h-2.1167v2.1167z"/><path class="UnoptimicedTransforms" d="m6.35 4.2333v2.1167h10.583v-2.1167h-10.583zm10.583 2.1167v12.7h2.1167v-4.2333h2.1167v-10.583h-2.1167v2.1167h-2.1167zm-12.7 2.1167v12.7h10.583v-12.7h-10.583z" fill="#d48c59"/><path class="UnoptimicedTransforms" d="m16.933 4.2333v2.1167h2.1167v-2.1167h-2.1167zm-10.583 2.1167v2.1167h8.4667v-2.1167h-8.4667zm8.4667 2.1167v12.7h2.1167v-12.7h-2.1167z" fill="#98501d"/><path class="UnoptimicedTransforms" d="m4.2333 6.35v2.1167h2.1167v-2.1167h-2.1167zm10.583 0v2.1167h2.1167v-2.1167h-2.1167zm4.2333 8.4667v2.1167h2.1167v-2.1167h-2.1167z" fill="#7a3200"/></g></svg>
